<?xml version="1.0" encoding="utf-8"?>
<!-- Generator: Adobe Illustrator 14.0.0, SVG Export Plug-In . SVG Version: 6.00 Build 43363)  -->
<!DOCTYPE svg PUBLIC "-//W3C//DTD SVG 1.1//EN" "http://www.w3.org/Graphics/SVG/1.1/DTD/svg11.dtd">
<svg version="1.1" id="Layer_1" xmlns="http://www.w3.org/2000/svg" xmlns:xlink="http://www.w3.org/1999/xlink" x="0px" y="0px"
	 width="800px" height="380.393px" viewBox="0 0 800 380.393" enable-background="new 0 0 800 380.393" xml:space="preserve">
<g id="Layer_8">
	<rect fill="none" width="800" height="380.393"/>
</g>
<g id="Layer_7">
</g>
<g id="Layer_6">
</g>
<g id="Layer_5">
	<path fill="#009444" d="M64.673,58.685h33.904v81.025c9.485-11.205,26.15-20.684,44.251-20.684
		c41.375,0,71.258,33.616,71.258,74.705c0,41.09-29.884,74.706-71.258,74.706c-18.101,0-34.766-9.483-44.251-21.266v18.391H64.673
		V58.685z M98.577,193.731c0,22.411,18.391,40.799,40.805,40.799c22.408,0,40.799-18.388,40.799-40.799
		c0-22.414-18.391-40.799-40.799-40.799C116.968,152.932,98.577,171.317,98.577,193.731z"/>
</g>
<g id="Layer_4">
	<g>
		<path fill="#009444" d="M391.881,119.026c18.102,0,34.767,9.479,44.249,20.684v-17.813h33.903V262.69
			c0,42.812-29.019,68.958-76.716,68.958c-22.696,0-46.549-7.755-63.5-23.272l23.562-23.563
			c11.206,9.479,26.434,14.654,40.511,14.654c26.724,0,42.24-12.928,42.24-34.482v-17.814
			c-9.482,11.782-26.147,21.266-44.249,21.266c-41.089,0-71.257-33.616-71.257-74.706
			C320.624,152.642,350.792,119.026,391.881,119.026z M354.528,193.731c0,22.411,18.39,40.799,40.799,40.799
			c22.414,0,40.802-18.388,40.802-40.799c0-22.414-18.388-40.799-40.802-40.799C372.918,152.932,354.528,171.317,354.528,193.731z"
			/>
		<path fill="#009444" d="M556.423,119.026c18.101,0,34.766,9.479,44.246,20.684v-17.813h33.907V262.69
			c0,42.812-29.022,68.958-76.717,68.958c-22.699,0-46.548-7.755-63.501-23.272l23.563-23.563
			c11.205,9.479,26.434,14.654,40.512,14.654c26.724,0,42.236-12.928,42.236-34.482v-17.814
			c-9.48,11.782-26.145,21.266-44.246,21.266c-41.088,0-71.257-33.616-71.257-74.706
			C485.166,152.642,515.335,119.026,556.423,119.026z M519.069,193.731c0,22.411,18.391,40.799,40.799,40.799
			c22.413,0,40.8-18.388,40.8-40.799c0-22.414-18.387-40.799-40.8-40.799C537.46,152.932,519.069,171.317,519.069,193.731z"/>
		<path fill="#009444" d="M658.323,265.563V121.896h33.904v16.379c9.771-11.494,24.712-19.25,43.1-19.25v32.179
			c-1.148-0.286-2.587-0.286-3.736-0.286c-21.549,0-39.364,15.228-39.364,37.065v77.578H658.323z"/>
	</g>
</g>
<g id="Layer_3">
	<g>
		<path fill="#F37121" d="M300.82,144.774c-0.369-1.868-0.853-3.538-1.467-4.973c-0.602-1.407-1.258-2.716-1.957-3.942
			c-10.233-17.905-29.888-16.82-29.888-16.82s-22.429-1.238-31.843,20.763c-2.326,5.438-2.794,14.163-1.99,24.698
			c0.219,2.852,0.53,5.839,0.923,8.926c2.443,19.199,8.042,42.376,14,62.481c0.894,3.012,1.794,5.958,2.694,8.809
			c6.903,21.873,13.726,38.273,16.216,38.462c3.964-0.232,17.496-37.241,26.309-74.367c0.692-2.915,1.355-5.836,1.983-8.736
			C300.558,178.071,303.237,157.054,300.82,144.774z"/>
	</g>
</g>
<g id="Layer_2">
	<path fill="#009444" d="M295.258,71.991c-2.706,0-5.313,1.191-6.903,3.102c-0.528,0.573-5.537,5.48-10.023,9.754
		c-0.005-6.649,0.069-15.105,0.107-19.499c0.035-3.973,0.049-5.766,0.038-6.264c-0.151-6.716-5.8-10.34-11.04-10.34
		c-3.069,0-5.979,1.156-7.984,3.173c-1.909,1.918-2.91,4.441-2.894,7.308l0.018,1.788c0.119,11.436,0.152,18.933,0.143,23.849
		c-4.482-4.268-9.479-9.16-9.959-9.68c-1.667-1.998-4.277-3.191-6.981-3.191c-3.181,0-5.919,1.651-7.146,4.308
		c-1.115,2.415-1.426,6.489,3.425,12.187c0.692,0.813,17.565,18.878,18.93,20.181c0.1,0.098,0.229,0.247,0.392,0.427l0.104,0.115
		c2.079,2.307,6.405,7.105,12.002,7.105h0.03l0.25-0.006c5.782-0.313,10.008-5.08,11.889-7.201c0.165-0.187,0.298-0.343,0.391-0.435
		c1.369-1.307,18.244-19.372,18.935-20.184c4.853-5.7,4.54-9.773,3.425-12.187C301.177,73.642,298.439,71.991,295.258,71.991z"/>
</g>
</svg>
